<svg width="42" height="42" viewBox="0 0 42 42" fill="none" xmlns="http://www.w3.org/2000/svg">
<path d="M25.8004 36.9344C26.6811 37.0071 27.4 37.7165 27.4 38.6002C27.4 39.4839 26.6812 40.2062 25.7997 40.144C14.7036 39.3607 5.83959 30.495 5.05651 19.3991C4.99431 18.5178 5.71652 17.7991 6.60009 17.7991C7.48366 17.7991 8.19299 18.5179 8.26559 19.3984C9.03475 28.7269 16.4717 36.165 25.8004 36.9344Z" fill="#CDD0D4"/>
<path d="M25.803 30.5016C26.68 30.6107 27.3999 31.3166 27.3999 32.2003C27.3999 33.084 26.6815 33.8088 25.8021 33.7216C17.7151 32.9198 11.4 26.0967 11.4 17.7991C11.4 9.50192 17.7151 2.6805 25.8021 1.87889C26.6815 1.79172 27.3999 2.51651 27.3999 3.40021C27.3999 4.28391 26.68 4.98981 25.803 5.09893C19.4869 5.88491 14.6002 11.2721 14.6002 17.7991C14.6002 24.3287 19.4869 29.7157 25.803 30.5016Z" fill="#0E64EE" fill-opacity="0.5"/>
<path d="M25.8163 24.0027C26.6726 24.2206 27.4 24.9164 27.4 25.7999C27.4 26.6835 26.6783 27.4138 25.8068 27.2682C21.2623 26.5094 17.7999 22.5586 17.7999 17.7988C17.7999 12.4972 22.0969 8.19971 27.4 8.19971C32.1608 8.19971 36.1101 11.6622 36.8685 16.2061C37.014 17.0774 36.284 17.799 35.4006 17.7993C34.5169 17.7995 33.8208 17.0721 33.6028 16.2156C32.898 13.4474 30.3891 11.3999 27.4 11.3999C23.8643 11.3999 21.0001 14.2655 21.0001 17.7997C21.0001 20.7872 23.0471 23.2978 25.8163 24.0027Z" fill="#CDD0D4"/>
</svg>
