<svg width="42" height="42" viewBox="0 0 42 42" fill="none" xmlns="http://www.w3.org/2000/svg">
<path d="M2.00082 20.9978C2.00082 19.8932 2.89625 18.9978 4.00082 18.9978H5.00082C6.10539 18.9978 7.00082 19.8932 7.00082 20.9978C7.00082 22.1024 6.10539 22.9978 5.00082 22.9978H4.00082C2.89625 22.9978 2.00082 22.1024 2.00082 20.9978Z" fill="#CDD0D4"/>
<path d="M11.0008 20.9978C11.0008 19.8932 11.8963 18.9978 13.0008 18.9978H14.0008C15.1054 18.9978 16.0008 19.8932 16.0008 20.9978C16.0008 22.1024 15.1054 22.9978 14.0008 22.9978H13.0008C11.8963 22.9978 11.0008 22.1024 11.0008 20.9978Z" fill="#0E64EE" fill-opacity="0.5"/>
<path d="M19.0008 20.9978C19.0008 19.8932 19.8963 18.9978 21.0008 18.9978C22.1054 18.9978 23.0008 19.8932 23.0008 20.9978C23.0008 22.1024 22.1054 22.9978 21.0008 22.9978C19.8963 22.9978 19.0008 22.1024 19.0008 20.9978Z" fill="#CDD0D4"/>
<path d="M26.0008 20.9978C26.0008 19.8932 26.8963 18.9978 28.0008 18.9978H29.0008C30.1054 18.9978 31.0008 19.8932 31.0008 20.9978C31.0008 22.1024 30.1054 22.9978 29.0008 22.9978H28.0008C26.8963 22.9978 26.0008 22.1024 26.0008 20.9978Z" fill="#0E64EE" fill-opacity="0.5"/>
<path d="M34.7512 20.7475C34.7512 19.7812 35.5345 18.9978 36.5008 18.9978H38.2512C39.2175 18.9978 40.0008 19.7812 40.0008 20.7475C40.0008 21.7138 39.2175 22.4971 38.2512 22.4971H36.5008C35.5345 22.4971 34.7512 21.7138 34.7512 20.7475ZM19.0008 36.4981C19.0008 35.5316 19.7843 34.7482 20.7507 34.7482C21.7171 34.7482 22.5006 35.5316 22.5006 36.4981V38.2479C22.5006 39.2144 21.7171 39.9978 20.7507 39.9978C19.7843 39.9978 19.0008 39.2144 19.0008 38.2479V36.4981Z" fill="#CDD0D4"/>
<path d="M19.0008 27.9977C19.0008 26.8931 19.8963 25.9977 21.0008 25.9977C22.1054 25.9977 23.0008 26.8931 23.0008 27.9977V28.9978C23.0008 30.1024 22.1054 30.9978 21.0008 30.9978C19.8963 30.9978 19.0008 30.1024 19.0008 28.9978V27.9977ZM19.0008 12.9978C19.0008 11.8932 19.8963 10.9978 21.0008 10.9978C22.1054 10.9978 23.0008 11.8932 23.0008 12.9978V13.9975C23.0008 15.102 22.1054 15.9975 21.0008 15.9975C19.8963 15.9975 19.0008 15.102 19.0008 13.9975V12.9978Z" fill="#0E64EE" fill-opacity="0.5"/>
<path d="M19.0008 3.99782C19.0008 2.89325 19.8963 1.99782 21.0008 1.99782C22.1054 1.99782 23.0008 2.89325 23.0008 3.99782V4.99782C23.0008 6.10239 22.1054 6.99782 21.0008 6.99782C19.8963 6.99782 19.0008 6.10239 19.0008 4.99782V3.99782Z" fill="#CDD0D4"/>
<path d="M35.2008 35.1977C35.8636 34.535 36.938 34.5351 37.6007 35.1978L38.8009 36.398C39.4636 37.0607 39.4636 38.1352 38.8008 38.7979C38.1381 39.4606 37.0636 39.4606 36.4009 38.7979L35.2008 37.5976C34.5381 36.9349 34.5381 35.8604 35.2008 35.1977Z" fill="#0E64EE" fill-opacity="0.5"/>
<path d="M29.077 29.073C29.7569 28.3931 30.8593 28.3931 31.5391 29.0732L32.7706 30.3051C33.4501 30.9849 33.4501 32.0867 32.7706 32.7664C32.0908 33.4464 30.9884 33.4465 30.3086 32.7665L29.0769 31.5346C28.3973 30.8548 28.3973 29.7528 29.077 29.073ZM9.23178 9.22967C9.91194 8.54941 11.0148 8.54954 11.6948 9.22995L12.9262 10.4621C13.6058 11.1421 13.6057 12.2443 12.9258 12.9241C12.2458 13.6041 11.1433 13.604 10.4634 12.9239L9.23174 11.692C8.55189 11.012 8.55191 9.90966 9.23178 9.22967Z" fill="#CDD0D4"/>
<path d="M3.24501 3.17846C3.91087 2.52474 4.97763 2.52474 5.64349 3.17846L6.86473 4.37743C7.54814 5.04838 7.54814 6.14949 6.86473 6.82044C6.19887 7.47416 5.13211 7.47416 4.46625 6.82044L3.24501 5.62147C2.5616 4.95052 2.5616 3.84941 3.24501 3.17846ZM35.136 6.81811C34.4526 6.14716 34.4526 5.04605 35.136 4.3751L36.3582 3.17519C37.024 2.52147 38.0908 2.52147 38.7566 3.17519C39.44 3.84614 39.44 4.94725 38.7566 5.61821L37.5344 6.81811C36.8686 7.47183 35.8018 7.47183 35.136 6.81811Z" fill="#0E64EE" fill-opacity="0.5"/>
<path d="M29.0763 12.923C28.3964 12.2431 28.3963 11.1408 29.0762 10.4609L30.3078 9.22906C30.9877 8.54909 32.0902 8.54909 32.7701 9.22906C33.4498 9.9089 33.4499 11.011 32.7701 11.6909L31.5386 12.9228C30.8587 13.6028 29.7563 13.6029 29.0763 12.923ZM9.23234 32.7659C8.55216 32.0856 8.55212 30.9828 9.23226 30.3025L10.4636 29.0709C11.1439 28.3904 12.2472 28.3903 12.9276 29.0708C13.6079 29.7512 13.6078 30.8542 12.9275 31.5345L11.696 32.766C11.0157 33.4463 9.91263 33.4463 9.23234 32.7659Z" fill="#CDD0D4"/>
<path d="M3.20061 38.7974C2.53796 38.1345 2.53805 37.0601 3.2008 36.3973L4.4006 35.1976C5.06329 34.5349 6.13768 34.5349 6.80046 35.1975C7.46338 35.8602 7.46348 36.9348 6.80069 37.5977L5.60097 38.7975C4.93813 39.4604 3.86338 39.4603 3.20061 38.7974Z" fill="#0E64EE" fill-opacity="0.5"/>
</svg>
