<svg width="42" height="42" viewBox="0 0 42 42" fill="none" xmlns="http://www.w3.org/2000/svg">
<path d="M20.9996 15.96C18.2171 15.96 15.9596 18.2158 15.9596 20.9992C15.9596 23.7821 18.2171 26.0392 20.9996 26.0392C23.7834 26.0392 26.0392 23.7821 26.0392 20.9992C26.0392 18.2158 23.7834 15.96 20.9996 15.96ZM20.9996 22.6792C20.071 22.6792 19.3196 21.9278 19.3196 20.9992C19.3195 20.7785 19.3629 20.5601 19.4473 20.3562C19.5317 20.1524 19.6554 19.9672 19.8115 19.8113C19.9675 19.6553 20.1527 19.5316 20.3566 19.4473C20.5605 19.363 20.779 19.3198 20.9996 19.32C21.2202 19.3198 21.4386 19.3631 21.6424 19.4475C21.8463 19.5318 22.0315 19.6555 22.1875 19.8114C22.3434 19.9674 22.4672 20.1525 22.5515 20.3563C22.6359 20.5601 22.6793 20.7786 22.6792 20.9992C22.6792 21.9278 21.9282 22.6792 20.9996 22.6792Z" fill="#0E64EE" fill-opacity="0.5"/>
<path d="M5.38536 36.6071C4.72935 35.9512 4.7293 34.8876 5.38526 34.2317L12.6809 26.9361C13.3367 26.2802 14.4001 26.2802 15.056 26.9361C15.7119 27.5919 15.7119 28.6553 15.056 29.3112L7.76057 36.6069C7.1047 37.2628 6.04131 37.2629 5.38536 36.6071ZM36.6104 36.6162C35.9545 37.2719 34.8913 37.2718 34.2355 36.6159L26.9396 29.3194C26.2839 28.6636 26.2839 27.6004 26.9396 26.9447C27.5954 26.2889 28.6586 26.2889 29.3144 26.9447L36.6106 34.2409C37.2665 34.8969 37.2665 35.9604 36.6104 36.6162ZM36.6148 5.38776C37.2705 6.04351 37.2705 7.10669 36.6148 7.76244L29.3181 15.0591C28.6624 15.7148 27.5992 15.7148 26.9434 15.0591C26.2877 14.4033 26.2877 13.3402 26.9435 12.6844L34.2401 5.38776C34.8959 4.73201 35.959 4.73201 36.6148 5.38776ZM5.38965 5.38673C6.04553 4.73086 7.10892 4.73087 7.76478 5.38676L15.0607 12.6829C15.7165 13.3388 15.7165 14.4022 15.0606 15.058C14.4047 15.7139 13.3414 15.7139 12.6855 15.058L5.38963 7.76181C4.73379 7.10594 4.7338 6.04259 5.38965 5.38673Z" fill="#CDD0D4"/>
</svg>
